# xmcd
# 
# Track frame offsets:
#     150
#     3690
#     23145
#     38475
#     54442
#     68058
#     82991
#     106180
#     125631
#     140807
#     158821
#     173739
# 
# Disc length: 2501
# 
# Revision: 1
# Processed by: cddbd v1.5.2PL0 Copyright (c) Steve Scherf et al.
# Submitted via: fre:ac v1.0.27
# 
DISCID=9509c30c
DTITLE=pat mAcdonald - Troubadour Of Stomp
DYEAR=2005
DGENRE=Blues Punk
TTITLE0=Land Of Stomp
TTITLE1=The Governor
TTITLE2=Bridge Hater Song
TTITLE3=I Never Will
TTITLE4=Shake Well
TTITLE5=This Band Sucks
TTITLE6=Too High
TTITLE7=Seeing Things
TTITLE8=Wish You Would Die
TTITLE9=My Troubled Mind
TTITLE10=Steel Bridge Song
TTITLE11=Thanks Man
EXTD=
EXTT0=
EXTT1=
EXTT2=
EXTT3=
EXTT4=
EXTT5=
EXTT6=
EXTT7=
EXTT8=
EXTT9=
EXTT10=
EXTT11=
PLAYORDER=
